<?xml version="1.0" encoding="UTF-8" standalone="no"?>
<svg
   xmlns:dc="http://purl.org/dc/elements/1.1/"
   xmlns:cc="http://creativecommons.org/ns#"
   xmlns:rdf="http://www.w3.org/1999/02/22-rdf-syntax-ns#"
   xmlns:svg="http://www.w3.org/2000/svg"
   xmlns="http://www.w3.org/2000/svg"
   xmlns:sodipodi="http://sodipodi.sourceforge.net/DTD/sodipodi-0.dtd"
   xmlns:inkscape="http://www.inkscape.org/namespaces/inkscape"
   viewBox="0 0 90 90"
   version="1.1"
   id="svg26"
   sodipodi:docname="bb.svg"
   width="90"
   height="90"
   inkscape:version="0.92.5 (2060ec1f9f, 2020-04-08)">
  <metadata
     id="metadata32">
    <rdf:RDF>
      <cc:Work
         rdf:about="">
        <dc:format>image/svg+xml</dc:format>
        <dc:type
           rdf:resource="http://purl.org/dc/dcmitype/StillImage" />
        <dc:title></dc:title>
      </cc:Work>
    </rdf:RDF>
  </metadata>
  <defs
     id="defs30" />
  <sodipodi:namedview
     pagecolor="#ffffff"
     bordercolor="#666666"
     borderopacity="1"
     objecttolerance="10"
     gridtolerance="10"
     guidetolerance="10"
     inkscape:pageopacity="0"
     inkscape:pageshadow="2"
     inkscape:window-width="1294"
     inkscape:window-height="704"
     id="namedview28"
     showgrid="false"
     inkscape:zoom="3.7305188"
     inkscape:cx="3.8924181"
     inkscape:cy="44.658074"
     inkscape:window-x="72"
     inkscape:window-y="27"
     inkscape:window-maximized="1"
     inkscape:current-layer="svg26"
     fit-margin-top="0"
     fit-margin-left="0"
     fit-margin-right="0"
     fit-margin-bottom="0" />
  <path
     d="m -458.34789,53.854893 c 0,1.5492 -1.0758,2.3238 -3.2275,2.3238 -2.4099,0 -3.6148,-0.77459 -3.6148,-2.3238 0,-7.1435 -2.3668,-12.953 -7.1005,-17.428 -4.2173,-3.7869 -8.3054,-5.6804 -12.264,-5.6804 -5.8525,0 -9.5104,2.3238 -10.973,6.9714 l -0.5164,3.4857 v 0.2582 c 0,3.4426 2.539,8.2194 7.6169,14.33 1.3771,1.5492 2.539,2.7541 3.4857,3.6148 1.3771,1.1188 3.6578,1.6783 6.8423,1.6783 3.3566,0 8.7788,-0.6455 16.267,-1.9365 7.5739,1.291 13.039,1.9365 16.396,1.9365 3.2705,0 5.5513,-0.55943 6.8423,-1.6783 3.6148,-3.1845 6.6271,-7.0575 9.037,-11.619 1.3771,-2.582 2.0656,-4.6906 2.0656,-6.3259 0,-5.4222 -2.4529,-8.8218 -7.3587,-10.199 -1.291,-0.34427 -2.6681,-0.51641 -4.1312,-0.51641 -3.959,0 -8.0042,1.9365 -12.135,5.8095 -4.8197,4.3033 -7.2296,10.07 -7.2296,17.299 m 28.015,-12.394 c 0,3.4426 -2.3668,7.4878 -7.1005,12.135 l -3.3566,2.8402 -1.291,0.77458 c -1.6353,0.2582 -3.3566,0.3873 -5.164,0.3873 -5.3361,0 -8.0042,-1.0758 -8.0042,-3.2275 0.17213,-6.6271 2.1517,-11.791 5.9386,-15.492 3.2705,-3.2706 6.6271,-4.9058 10.07,-4.9058 4.3894,0 7.1866,1.5922 8.3915,4.7767 l 0.51641,2.7111 m -12.264,32.791 c 0,-2.2377 -6.3259,-3.3566 -18.978,-3.3566 -3.4427,0 -6.498,0.12909 -9.1661,0.3873 l -3.0984,0.2582 c -4.6476,0.60247 -6.9714,1.4631 -6.9714,2.582 0,1.291 1.1619,1.9365 3.4857,1.9365 l 15.621,-1.291 15.492,1.291 c 2.4098,0 3.6148,-0.60246 3.6148,-1.8074 m 7.2296,3.0984 c -0.17214,5.8525 -8.9509,8.7788 -26.336,8.7788 -17.213,0 -25.949,-2.9263 -26.207,-8.7788 -0.0861,-5.5083 -0.9037,-10.414 -2.4529,-14.717 -0.94673,-2.3238 -2.7541,-5.2931 -5.4222,-8.9079 -3.3566,-4.5615 -5.0349,-8.6067 -5.0349,-12.135 0,-5.5083 2.3668,-9.7686 7.1005,-12.781 2.6681,-1.7213 5.6374,-2.582 8.9079,-2.582 4.4755,0 8.7358,1.6353 12.781,4.9058 0,-3.9591 0.3873,-6.6702 1.1619,-8.1333 0.60246,-1.6353 2.582,-3.6148 5.9386,-5.9386 v -2.9693 l -5.2931,-3.2275 V 6.2163625 h 4.7767 l 1.5492,-4.7767 h 4.3894 l 1.6783,4.7767 h 4.6476 v 4.6476005 l -5.164,3.2275 v 2.9693 c 3.2705,2.4099 5.2931,4.4755 6.0677,6.1968 l 0.9037,3.7439 c 0.0861,1.0328 0.17214,2.4099 0.2582,4.1312 4.0451,-3.2705 8.2194,-4.9058 12.523,-4.9058 5.7664,0 10.242,2.1947 13.426,6.5841 1.8074,2.582 2.7111,5.5083 2.7111,8.7788 0,3.5287 -1.6783,7.6169 -5.0349,12.264 l -2.9693,4.1312 c -3.1844,4.8197 -4.8197,11.275 -4.9058,19.365 m -57.708,-35.89 c 0,-3.6148 1.8074,-5.9386 5.4222,-6.9714 1.0328,-0.34428 2.1086,-0.51641 3.2275,-0.51641 3.6148,0 7.0575,1.6353 10.328,4.9058 3.7009,3.7869 5.6374,8.9509 5.8095,15.492 0.0861,1.8935 -1.8935,2.9693 -5.9386,3.2275 h -1.9365 c -1.7213,0 -3.4857,-0.1291 -5.2931,-0.3873 -2.8402,-1.3771 -5.6804,-4.0882 -8.5206,-8.1333 -2.0656,-3.0123 -3.0984,-5.5513 -3.0984,-7.6169"
     id="path2"
     style="opacity:1;stroke-width:2.20000005;stroke-miterlimit:4;stroke-dasharray:none"
     inkscape:connector-curvature="0" />
  <path
     d="m -315.45789,72.694893 c 0,1.3771 0.98976,2.0656 2.9693,2.0656 l 8.9079,-0.6455 7.746,-0.3873 h 1.9365 l 15.105,0.77461 3.0984,0.25819 c 1.9794,0 2.9692,-0.68853 2.9693,-2.0656 -1e-4,-2.4959 -5.7666,-3.873 -17.299,-4.1312 h -4.0021 c -9.7256,0 -16.224,0.73158 -19.494,2.1947 -1.291,0.51641 -1.9365,1.1619 -1.9365,1.9365 m -16.137,-53.964 c -1.6353,0 -2.6681,0.81765 -3.0984,2.4529 -0.0861,0.2582 -0.12911,0.51639 -0.12911,0.77461 0,1.6353 0.81765,2.6681 2.4529,3.0984 0.25819,0.08607 0.51639,0.12911 0.7746,0.12911 2.0656,0 3.0984,-1.0758 3.0984,-3.2275 0,-2.1517 -1.0328,-3.2275 -3.0984,-3.2275 m 16.912,-8.1333 c -2.2377,0 -3.3566,1.0758 -3.3566,3.2275 0,2.1517 1.1188,3.2275 3.3566,3.2275 2.0656,0 3.0984,-1.0758 3.0984,-3.2275 0,-2.1517 -1.0328,-3.2275 -3.0984,-3.2275 m 41.183,0 c -1.4632,0 -2.453,0.73158 -2.9693,2.1947 l -0.12911,1.0328 c -10e-5,2.1517 1.0327,3.2275 3.0984,3.2275 2.1516,0 3.2274,-1.0758 3.2275,-3.2275 1e-4,-2.1517 -1.0759,-3.2275 -3.2275,-3.2275 m 16.783,8.1333 c -2.0657,0 -3.0985,1.0758 -3.0984,3.2275 10e-5,2.1517 1.0327,3.2275 3.0984,3.2275 2.1516,0 3.2274,-1.0758 3.2275,-3.2275 -1.3e-4,-1.6353 -0.81775,-2.6681 -2.4529,-3.0984 -0.2583,-0.08607 -0.51651,-0.12911 -0.7746,-0.12911 m -9.2952,61.71 c -1.1e-4,2.4099 -4.4325,4.0882 -13.297,5.0349 l -12.523,0.77458 h -2.3238 c -10.5,0 -18.504,-0.90369 -24.013,-2.7111 -2.6681,-0.77461 -4.0021,-1.8074 -4.0021,-3.0984 0,-2.4959 0.68853,-5.3361 2.0656,-8.5206 0.94673,-1.8935 1.4201,-3.2275 1.4201,-4.0021 0,-1.6353 -1.9795,-4.8198 -5.9386,-9.5534 -2.1517,-2.4959 -3.3996,-4.2173 -3.7439,-5.164 0,-0.51639 -0.2582,-1.6783 -0.77461,-3.4857 l -1.6783,-6.455 c -1.1188,-4.2173 -1.8504,-8.6927 -2.1947,-13.426 -3.9591,-1.6353 -5.9386,-4.2603 -5.9386,-7.8751 0,-3.0984 1.4201,-5.2931 4.2603,-6.5841 0.94673,-0.43035 1.9795,-0.64552 3.0984,-0.64552 2.8402,0 4.9488,1.291 6.3259,3.873 0.60248,1.1188 0.90371,2.2377 0.90371,3.3566 l -0.6455,4.9058 c 0,3.873 2.7541,8.6067 8.2624,14.201 0.43032,-3.5287 0.6455,-7.2296 0.6455,-11.103 0,-5.7664 -1.0328,-9.4243 -3.0984,-10.973 -0.17213,-0.17215 -0.34428,-0.30123 -0.51639,-0.3873 -1.5492,-0.94674 -2.3238,-2.625 -2.3238,-5.0349 0,-3.1845 1.4631,-5.3792005 4.3894,-6.5841005 0.94675,-0.43033 1.9365,-0.6455 2.9693,-0.6455 3.0123,0 5.164,1.3771 6.455,4.1312005 0.51639,0.94675 0.77448,1.9795 0.7746,3.0984 l -0.90371,5.5513 c 0,4.8197 2.3667,12.178 7.1005,22.076 1.8073,-8.0903 2.711,-14.287 2.7111,-18.59 -10e-5,-3.6148 -0.64562,-6.9284 -1.9365,-9.9407 -0.51652,-1.1189 -0.77471,-1.9795 -0.77461,-2.582 -1e-4,-3.1845005 1.42,-5.3792005 4.2603,-6.5841005 0.94662,-0.43032 1.9364,-0.6455 2.9693,-0.6455 3.0122,0 5.1208,1.4201 6.3259,4.2603 0.43022,0.94673 0.6454,1.9365 0.6455,2.9693005 -10e-5,0.17213 -0.73167,2.4529 -2.1947,6.8423 -0.34439,1.1188 -0.51651,3.0123 -0.51641,5.6804 -1e-4,4.3033 0.90359,10.5 2.7111,18.59 4.6475,-9.8116 6.9713,-17.17 6.9714,-22.076 l -0.7746,-5.4222 v -0.12911 c -1.2e-4,-3.1845 1.463,-5.3792005 4.3894,-6.5841005 0.94662,-0.43033 1.9364,-0.6455 2.9693,-0.6455 3.0122,0 5.1639,1.3771 6.455,4.1312005 0.51629,0.94675 0.77449,1.9795 0.77459,3.0984 -10e-5,2.4099 -0.77471,4.1312 -2.3238,5.164 -2.41,1.5492 -3.6149,5.3361 -3.6148,11.361 -10e-5,3.7869 0.21505,7.4448 0.6455,10.974 5.5081,-5.5943 8.2623,-10.328 8.2624,-14.201 l -0.6455,-4.9058 c -10e-5,-3.0123 1.377,-5.164 4.1312,-6.455 0.94662,-0.51639 1.9794,-0.7746 3.0984,-0.7746 3.0983,0 5.293,1.3771 6.5841,4.1312 l 0.7746,2.4529 v 0.6455 c -1e-4,3.4426 -1.9796,6.0677 -5.9386,7.8751 -0.51651,5.9386 -1.9796,13.211 -4.3894,21.818 -0.17223,0.68854 -0.25831,1.2049 -0.2582,1.5492 -1.1e-4,0.60247 -0.64561,1.5922 -1.9365,2.9693 l -1.5492,1.9365 c -4.1313,4.7337 -6.1969,8.0042 -6.1968,9.8116 -1e-4,0.51639 1.0327,3.1845 3.0984,8.0042 0.34417,1.7213 0.51628,3.2275 0.51639,4.5185 m -28.015,-73.8450005 c -1.6354,0 -2.6682,0.81764 -3.0984,2.4529 -0.0862,0.2582 -0.12919,0.51639 -0.12908,0.77459 -1.1e-4,1.6353005 0.81751,2.6681005 2.4529,3.0984005 0.25809,0.08607 0.51631,0.12911 0.77461,0.12911 2.0655,0 3.0983,-1.0758 3.0984,-3.2275005 -1.2e-4,-1.5492 -0.73167,-2.582 -2.1947,-3.0984 -0.2583,-0.08606 -0.55953,-0.1291 -0.90369,-0.1291 m 23.238,50.3490005 c -1e-4,-2.7541 -7.7461,-4.1312 -23.238,-4.1312 -15.578,0 -23.367,1.4201 -23.367,4.2603 0,1.2049 1.1188,1.8074 3.3566,1.8074 2.582,0 5.8095,-0.21516 9.6825,-0.6455 l 8.3915,-0.25819 h 2.0656 c 2.4097,0 6.9713,0.21515 13.685,0.6455 l 6.3259,0.25819 c 2.0655,0 3.0983,-0.6455 3.0984,-1.9365"
     id="path4"
     inkscape:connector-curvature="0" />
  <path
     d="m -155.01789,86.124893 -2.4529,-2.4529 v -9.1661 l 13.039,-12.91 v -25.691 l -10.07,-9.9407 v -11.49 l 3.6148,-3.6148 h 9.1661 l 2.3238,2.1947 v 3.2275 h 4.9058 v -3.2275 l 2.1947,-2.1947 h 14.33 l 2.1947,2.1947 v 3.2275 h 4.9058 v -3.2275 l 2.1947,-2.1947 h 9.2952 l 3.6148,3.6148 v 11.49 l -10.07,9.9407 v 25.691 l 13.039,12.91 v 9.1661 l -2.582,2.4529 h -59.644 m 15.234,-27.498 v 4.3894 h 29.306 v -4.3894 h -29.306 m 0,-23.238 v 4.3894 h 29.306 v -4.3894 h -29.306"
     id="path6"
     inkscape:connector-curvature="0" />
  <path
     d="m 39.254939,56.841011 c -4.3895,0 -6.5842,0.68853 -6.5841,2.0656 -1.2e-4,1.2049 1.9364,1.9365 5.8095,2.1947 h 7.1005 c 8.6065,0 12.91,-0.73158 12.91,-2.1947 -1.2e-4,-1.3771 -2.1948,-2.0656 -6.5841,-2.0656 h -12.652 m 0,-8.0042 c -3.787,0 -5.8957,0.43035 -6.3259,1.291 -0.17224,0.17215 -0.25832,0.43034 -0.2582,0.77461 -1.2e-4,0.94673 0.90359,1.5062 2.7111,1.6783 2.2376,0.25819 5.6373,0.3873 10.199,0.3873 4.5617,0 8.0041,-0.12911 10.328,-0.3873 1.7212,-0.17214 2.5819,-0.73157 2.582,-1.6783 -1.2e-4,-1.3771 -2.1948,-2.0656 -6.5841,-2.0656 h -12.652 m 24.013,5.5513 2.582,9.9407 c -1e-4,3.0123 -3.0555,4.7767 -9.1661,5.2931 4.4754,1.7213 8.6496,2.582 12.523,2.582 0.51631,0 3.0553,-0.12911 7.6169,-0.38731 3.7868,0 6.8852,1.9795 9.2952,5.9386 0.34416,0.68852 0.77451,1.4631 1.291,2.3238 l -4.6476,7.1005 c -1.3772,1.7213 -2.8403,2.8402 -4.3894,3.3566 -0.34439,-1.8074 -3.0985,-2.9262 -8.2624,-3.3566 l -3.0984,-0.25819 c -10.586,-0.86066 -17.73,-3.1414 -21.431,-6.8423 -3.3567,3.5287 -8.4777,5.5513 -15.363,6.0677 -1.5492,0.17215 -3.5718,0.43034 -6.0677,0.77461 -6.2829,0.51639 -9.9407,1.4201 -10.973,2.7111 -0.17214,0.25819 -0.30125,0.55943 -0.38731,0.90369 -2.2377,-0.94673 -4.3463997,-3.0984 -6.3258997,-6.455 -0.77461,-1.3771 -1.6783,-2.7111 -2.7111,-4.0021 2.3238,-4.3033 4.8197,-6.8853 7.4877997,-7.746 0.94676,-0.34427 1.9795,-0.5164 3.0984,-0.5164 l 7.6169,0.38731 c 3.959,0 8.1333,-0.86068 12.523,-2.582 -6.1107,-0.51639 -9.1661,-2.2808 -9.1661,-5.2931 0,-0.25819 0.68853,-2.4529 2.0656,-6.5841 0.43032,-1.3771 0.6455,-2.3238 0.6455,-2.8402 -5.2501,-6.3689 -7.8751,-12.006 -7.8751,-16.912 0,-5.6804 2.7972,-10.844 8.3915,-15.492 4.9918,-4.2173 8.6066,-6.455 10.844,-6.7132 -1.8936,-2.3238 -2.8403,-4.7337 -2.8402,-7.2296 -10e-5,-4.0451 2.0225,-6.541 6.0677,-7.4878 0.94662,-0.25810001 1.9364,-0.38718001 2.9693,-0.38729001 4.3032,1.1e-4 7.1004,1.59220001 8.3915,4.77670001 l 0.6455,2.7111 v 0.3873 c -1e-4,2.4099 -0.94684,4.8197 -2.8402,7.2296 1.6352,0.43033 4.088,1.7644 7.3587,4.0021 7.918,5.5082 11.877,11.576 11.877,18.203 -10e-5,4.9919 -2.5821,10.457 -7.746,16.396 m -15.363,-12.006 v -5.9386 h 4.5185 v -4.9058 h -4.5185 v -5.5513 h -4.6476 v 5.5513 h -4.5185 v 4.9058 h 4.5185 v 5.9386 h 4.6476 m -2.3238,-36.406 c -1.7214,0 -2.7973,0.77458 -3.2275,2.3238 l -0.12908,0.77458 c -1.1e-4,1.6353 0.86055,2.6681 2.582,3.0984 0.25809,0.08607 0.51629,0.12909 0.77461,0.12909 2.1515,0 3.2274,-1.0758 3.2275,-3.2275 -1.1e-4,-2.0656 -1.076,-3.0984 -3.2275,-3.0984"
     id="path8"
     inkscape:connector-curvature="0" />
  <path
     d="m 188.85211,40.164893 c 2.1516,0 4.4324,-1.248 6.8423,-3.7439 1.291,-1.291 1.9365,-2.4099 1.9365,-3.3566 0,-1.1189 -1.0328,-1.6783 -3.0984,-1.6783 -2.4098,0 -4.4324,1.0758 -6.0677,3.2275 -0.86069,1.0328 -1.291,2.1086 -1.291,3.2275 0,1.5492 0.55942,2.3238 1.6783,2.3238 m -2.1947,-28.273 c 0.17214,0 0.60246,-0.04304 1.291,-0.12911 3.873,0 8.0042,1.291 12.394,3.873 l 0.77461,0.51639 c 2.4959,-4.0451 4.3894,-6.0677 5.6804,-6.0677 2.7541,1.5492 4.5616,3.2275 5.4222,5.0349 0.43034,0.86068 1.0758,2.6681 1.9365,5.4222 0.68853,-0.17215 1.3771,-0.25819 2.0656,-0.25819 7.2296,0 14.115,4.4324 20.656,13.297 7.8321,10.242 11.748,24.185 11.748,41.828 0,3.9591 -0.17213,7.5308 -0.51639,10.715 h -54.48 c 0.17215,-5.7665 2.2808,-11.232 6.3259,-16.396 0.43034,-0.68853 1.0328,-1.4631 1.8074,-2.3238 3.1845,-4.0451 5.121,-7.1435 5.8095,-9.2952 0.34426,-1.1188 0.60246,-2.2808 0.7746,-3.4857 -5.6804,2.2377 -9.9407,5.5513 -12.781,9.9407 -1.291,2.1516 -2.7111,4.3894 -4.2603,6.7132 -0.43034,0.68854 -1.0758,1.0328 -1.9365,1.0328 -2.1517,0 -3.2275,-1.334 -3.2275,-4.0021 -0.86069,1.1189 -1.8504,1.6783 -2.9693,1.6783 l -2.582,-0.6455 c -3.7009,-0.94675 -6.3259,-2.582 -7.8751,-4.9058 -0.51639,-0.77459 -1.0758,-1.8074 -1.6783,-3.0984 0.60248,-3.7009 3.5718,-11.06 8.9079,-22.076 3.873,-7.9181 6.2829,-13.599 7.2296,-17.041 0.0861,-0.7746 0.12909,-1.8934 0.12909,-3.3566 0,-1.2049 -0.21517,-3.5287 -0.6455,-6.9714 m -7.746,45.314 c -2.0656,0 -3.4427,0.90369 -4.1312,2.7111 -0.17213,0.43033 -0.2582,0.86066 -0.2582,1.291 0,0.34426 0.12909,0.7746 0.3873,1.291 2.2377,0 3.6148,-0.94673 4.1312,-2.8402 0.0861,-0.2582 0.12911,-0.55945 0.12911,-0.9037 0,-0.17214 -0.0861,-0.68853 -0.2582,-1.5492 m 63.388,19.881 v -4.7767 c 0,-14.029 -3.5718,-25.519 -10.715,-34.47 -6.1968,-7.746 -11.834,-11.619 -16.912,-11.619 l -1.5492,-0.2582 c -0.17213,0.08606 -0.30124,0.17213 -0.38731,0.2582 -1.1188,0 -1.6783,0.47336 -1.6783,1.4201 0,0.34428 0.2582,0.77461 0.77459,1.291 4.6476,0.43032 9.7255,3.7439 15.234,9.9407 6.9714,8.0902 10.457,19.795 10.457,35.115 v 0.77461 c 0,3.7869 0.81762,5.6804 2.4529,5.6804 1.3771,0 2.1517,-1.1189 2.3238,-3.3566"
     id="path10"
     inkscape:connector-curvature="0" />
  <path
     d="m 350.19211,86.124893 c -0.086,-1.0328 -0.12908,-3.0554 -0.12908,-6.0677 0,-10.844 3.3566,-18.892 10.07,-24.142 1.9795,-1.6353 4.3893,-3.1414 7.2296,-4.5185 -3.3566,-1.0328 -5.6374,-3.5718 -6.8423,-7.6169 -0.34427,-1.291 -0.51639,-2.625 -0.51639,-4.0021 0,-5.7665 2.9693,-9.8546 8.9079,-12.264 -1.5493,-2.582 -2.3239,-5.0349 -2.3238,-7.3587 -1.1e-4,-3.873 1.8934,-6.7562 5.6804,-8.6497 1.7212,-0.86067 3.5716,-1.291 5.5513,-1.291 4.3032,0 7.4877,1.6783 9.5534,5.0349 0.94662,1.4631 1.42,3.0984 1.4201,4.9058 -1e-4,2.4959 -0.73167,4.9488 -2.1947,7.3587 3.1844,1.291 5.4651,3.0123 6.8423,5.164 1.377,2.3238 2.0655,4.6906 2.0656,7.1005 -1.4e-4,4.4754 -1.5493,7.8751 -4.6476,10.199 -0.77471,0.68854 -1.6354,1.1619 -2.582,1.4201 7.918,4.0451 13.039,9.3382 15.363,15.879 1.2048,3.6148 1.8073,7.8751 1.8074,12.781 -1e-4,3.0123 -0.0431,5.0349 -0.12908,6.0677 h -55.126"
     id="path12"
     inkscape:connector-curvature="0" />
  <path
     d="m -460.22789,228.95489 c -17.127,0 -25.82,-2.8832 -26.078,-8.6497 -0.43034,-7.9181 -1.7644,-13.9 -4.0021,-17.945 -0.94673,-1.6353 -2.2808,-3.6148 -4.0021,-5.9386 -2.9263,-3.873 -4.5615,-7.1435 -4.9058,-9.8116 -0.0861,-0.68853 -0.12911,-1.4201 -0.12911,-2.1947 0,-5.4222 2.2808,-9.6825 6.8423,-12.781 1.1189,-0.68854 2.2808,-1.248 3.4857,-1.6783 4.5615,-1.6353 9.08,-1.3771 13.555,0.77461 1.6353,0.77458 3.2705,1.8074 4.9058,3.0984 l 0.12911,0.12911 c 0,-1.8074 0.0861,-3.7439 0.2582,-5.8095 0,-0.60249 0.30122,-1.4201 0.90369,-2.4529 1.3771,-2.2377 3.0123,-4.0021 4.9058,-5.2931 0.34426,-0.17214 0.68853,-0.38731 1.0328,-0.6455 v -3.0984 l -5.2931,-3.0984 v -4.6476 h 4.7767 l 1.6783,-4.9058 h 3.873 l 1.6783,4.9058 h 4.7767 v 4.6476 l -5.2931,3.0984 v 3.0984 c 4.4755,2.8402 6.7562,5.6804 6.8423,8.5206 0.17213,1.7213 0.2582,3.6148 0.2582,5.6804 l 0.12911,-0.12911 c 5.4222,-4.5615 11.103,-6.0246 17.041,-4.3894 1.5492,0.43031 3.0123,1.0758 4.3894,1.9365 4.8197,2.9262 7.2726,7.2726 7.3587,13.039 0,3.4427 -1.7213,7.5308 -5.164,12.264 -2.8402,3.9591 -4.6046,6.8423 -5.2931,8.6497 -1.4631,3.873 -2.3238,8.8648 -2.582,14.976 -0.17212,5.7665 -8.8649,8.6497 -26.078,8.6497 m 0,-43.507 3.7439,-5.9386 c 0.60247,-1.291 1.0758,-2.4959 1.4201,-3.6148 0.17215,-0.60246 0.25822,-1.8504 0.25822,-3.7439 0,-5.0779 -1.7644,-7.6169 -5.2931,-7.6169 -3.7008,0 -5.5513,2.539 -5.5513,7.6169 0,1.8935 0.0861,3.1414 0.2582,3.7439 0.68853,2.3238 2.1517,5.0779 4.3894,8.2624 0.51641,0.60247 0.77461,1.0328 0.77461,1.291 m 34.47,-0.2582 c 0,-3.873 -1.291,-6.8423 -3.873,-8.9079 -2.1516,-1.8074 -4.6906,-2.7111 -7.6169,-2.7111 -3.7008,0 -7.703,1.8934 -12.006,5.6804 -5.0779,4.3894 -7.9612,10.328 -8.6497,17.816 0,0.60246 1.5922,1.291 4.7767,2.0656 3.7009,0.68854 9.9837,1.0328 18.849,1.0328 l 5.8095,-7.746 c 1.8074,-2.7541 2.7111,-5.164 2.7111,-7.2296 m -34.47,17.428 c -2.1517,0.94675 -8.6927,1.7644 -19.623,2.4529 -1.6353,0.0861 -2.9693,0.17213 -4.0021,0.2582 0.86068,3.2705 1.4201,6.8853 1.6783,10.844 5.9386,-1.8935 13.254,-2.8402 21.947,-2.8402 8.8648,0 16.181,0.94672 21.947,2.8402 0.2582,-4.3033 0.81763,-7.9181 1.6783,-10.844 l -19.107,-1.5492 c -1.6353,-0.25819 -3.1414,-0.64549 -4.5185,-1.1619 m -34.47,-17.428 c 0,2.6681 2.1086,6.7132 6.3259,12.135 1.0328,1.291 1.7644,2.2378 2.1947,2.8402 h 2.3238 c 8.8649,0 15.32,-0.60246 19.365,-1.8074 1.291,-0.34426 1.9365,-0.77458 1.9365,-1.291 -0.68854,-7.4878 -3.5718,-13.426 -8.6497,-17.816 -4.2173,-3.7869 -8.2194,-5.6804 -12.006,-5.6804 -1.2049,0 -2.4959,0.25819 -3.873,0.7746 -3.4427,0.86066 -5.7665,3.1414 -6.9714,6.8423 l -0.6455,3.4857 v 0.51639 m 34.47,39.117 c 8.0902,0 13.685,-0.51641 16.783,-1.5492 0.7746,-0.25822 1.1619,-0.55945 1.1619,-0.90372 0,-2.2377 -5.9386,-3.3566 -17.816,-3.3566 -4.5615,0 -8.9939,0.30125 -13.297,0.90371 -3.1845,0.51639 -4.7767,1.334 -4.7767,2.4529 0,1.291 5.0779,2.1086 15.234,2.4529 h 2.7111"
     id="path14"
     inkscape:connector-curvature="0" />
  <path
     d="m -295.26789,199.90489 h 5.6804 c 1.2909,0 2.8401,0.043 4.6476,0.12908 l 12.781,0.77461 h 0.12911 c 1.5491,0 2.3237,-0.21518 2.3238,-0.6455 v -0.51641 c -1.2e-4,-2.582 -5.7235,-4.2603 -17.17,-5.0349 -2.0657,-0.17215 -3.8731,-0.25821 -5.4222,-0.25821 -8.4346,0 -14.933,0.86067 -19.494,2.582 -2.0656,0.77458 -3.0984,1.6783 -3.0984,2.7111 v 0.51641 c 0,0.43032 0.77461,0.6455 2.3238,0.6455 l 17.299,-0.90369 m 23.883,5.8095 c -6.7994,-0.86066 -13.771,-1.291 -20.914,-1.291 -7.4879,0 -14.459,0.43034 -20.914,1.291 1.0328,0.86066 1.5492,2.539 1.5492,5.0349 0,1.6353 -0.25819,2.625 -0.77458,2.9693 5.164,-0.94673 11.877,-1.4201 20.14,-1.4201 8.263,0 14.975,0.47337 20.14,1.4201 -0.51651,-0.34427 -0.77471,-1.334 -0.77461,-2.9693 -10e-5,-2.496 0.51631,-4.1742 1.5492,-5.0349 m -20.914,11.103 c -4.3895,0 -9.2953,0.21517 -14.717,0.64551 -4.2173,0.34425 -6.3259,1.334 -6.3259,2.9693 0,2.1516 7.0144,3.2275 21.043,3.2275 14.0286,0 21.043,-1.0758 21.043,-3.2275 -10e-5,-0.68854 -0.55953,-1.334 -1.6783,-1.9365 -3.2706,-1.1189 -9.7256,-1.6783 -19.365,-1.6783 m 0,-67.519 c -2.1518,0 -3.2276,1.0328 -3.2275,3.0984 -1.3e-4,2.2377 1.0757,3.3566 3.2275,3.3566 2.0655,0 3.0983,-1.1189 3.0984,-3.3566 -1e-4,-2.0656 -1.0329,-3.0984 -3.0984,-3.0984 m 0,-3.7439 c 3.0983,0 5.25,1.4201 6.455,4.2603 l 0.6455,2.582 v 0.38731 c -1.1e-4,0.51639 -0.34437,1.5922 -1.0328,3.2275 -1.205,3.5287 -1.8075,6.5841 -1.8074,9.1661 -1e-4,4.2173 0.94663,10.457 2.8402,18.72 4.6475,-9.8116 6.9713,-17.213 6.9714,-22.205 l -0.77459,-5.5513 c -1.3e-4,-3.0123 1.3339,-5.164 4.0021,-6.455 0.9466,-0.51639 1.9794,-0.77458 3.0984,-0.77458 3.0983,0 5.293,1.377 6.5841,4.1312 0.51631,1.0328 0.77451,2.0656 0.77461,3.0984 -1e-4,2.2377 -0.77471,4.0021 -2.3238,5.2931 -2.3239,2.3238 -3.5288,6.1107 -3.6148,11.361 -10e-5,2.2378 0.21505,5.8525 0.6455,10.844 5.5942,-5.7665 8.3914,-10.457 8.3915,-14.072 l -0.64549,-5.0349 c -1.3e-4,-2.8402 1.2909,-4.9488 3.873,-6.3259 1.0327,-0.60248 2.1085,-0.90372 3.2275,-0.90372 2.9262,0 5.1208,1.334 6.5841,4.0021 l 0.77461,2.4529 v 0.77458 c -1e-4,3.5288 -1.9796,6.1968 -5.9386,8.0042 -0.17225,3.7009 -1.5924,10.973 -4.2603,21.818 -0.17225,0.51641 -0.30136,0.98976 -0.38731,1.4201 -1.1e-4,1.2049 -1.3772,3.2705 -4.1312,6.1968 -3.701,3.7009 -5.5514,6.5841 -5.5513,8.6497 -1e-4,0.94672 1.0327,3.4857 3.0984,7.6169 0.34418,0.77461 0.51629,1.9365 0.51639,3.4857 v 0.90369 c -0.0862,0.25819 -0.12921,0.55943 -0.12908,0.90369 v 0.12911 l 0.12908,0.12909 c -10e-5,3.0984 -8.3055,4.8197 -24.916,5.164 h -3.2275 l -5.4222,-0.1291 h -0.12911 c -8.0904,-0.2582 -14.244,-0.94673 -18.461,-2.0656 -2.6681,-0.77458 -4.0021,-1.7643 -4.0021,-2.9693 0.0861,-0.0861 0.0861,-0.60246 0,-1.5492 -0.0861,-0.17213 -0.0861,-0.34427 0,-0.51639 0,-1.9795 0.6455,-4.2603 1.9365,-6.8423 1.0328,-2.0656 1.5492,-3.4857 1.5492,-4.2603 0,-1.3771 -0.73156,-3.0123 -2.1947,-4.9058 l -6.3259,-7.2296 c -0.68852,-0.94673 -1.0328,-1.8504 -1.0328,-2.7111 -2.6681,-10.93 -4.1742,-18.031 -4.5185,-21.301 -0.0861,-0.68854 -0.1291,-1.334 -0.1291,-1.9365 -3.9591,-1.8074 -5.9386,-4.4754 -5.9386,-8.0042 0,-2.8402 1.291,-4.9488 3.873,-6.3259 1.1189,-0.60248 2.2378,-0.90372 3.3566,-0.90372 3.0123,0 5.164,1.3771 6.455,4.1312 0.51639,0.94673 0.77458,1.9795 0.77458,3.0984 l -0.6455,5.0349 c 0,3.7869 2.7541,8.4776 8.2624,14.072 0.43034,-3.7869 0.6455,-7.4017 0.6455,-10.844 0,-4.7336 -0.55943,-7.8751 -1.6783,-9.4243 -0.43034,-0.60246 -1.0758,-1.291 -1.9365,-2.0656 -1.5492,-1.0328 -2.3238,-2.7541 -2.3238,-5.164 0,-3.0123 1.4201,-5.207 4.2603,-6.5841 0.94673,-0.43035 1.9795,-0.6455 3.0984,-0.6455 3.0123,0 5.164,1.377 6.455,4.1312 0.51628,0.94673 0.77448,1.9795 0.77458,3.0984 l -0.77458,5.4222 v 0.1291 c 0,4.9058 2.3237,12.308 6.9714,22.205 1.8073,-7.832 2.711,-14.072 2.7111,-18.72 -1e-4,-3.4426 -0.6456,-6.7132 -1.9365,-9.8116 -0.51649,-1.2049 -0.7747,-2.0656 -0.77458,-2.582 -1.2e-4,-3.0123 1.3769,-5.164 4.1312,-6.455 0.94662,-0.51639 1.9794,-0.77458 3.0984,-0.77458 m 37.31,15.879 c -1.3772,0 -2.3669,0.68854 -2.9693,2.0656 -0.0862,0.34427 -0.12922,0.68852 -0.12911,1.0328 -1.1e-4,1.7213 0.77449,2.7972 2.3238,3.2275 0.25809,0.0861 0.51631,0.12909 0.77461,0.12909 2.1515,0 3.2274,-1.1189 3.2275,-3.3566 -1.1e-4,-2.0656 -1.076,-3.0984 -3.2275,-3.0984 m -16.912,-8.2624 c -1.4632,0 -2.453,0.73157 -2.9693,2.1947 l -0.12909,1.0328 c -1.2e-4,1.5492 0.73144,2.582 2.1947,3.0984 0.25809,0.0861 0.55932,0.12909 0.90369,0.12909 2.2376,0 3.3565,-1.0758 3.3566,-3.2275 10e-5,-2.1517 -1.119,-3.2275 -3.3566,-3.2275 m -41.054,0 c -2.1516,0 -3.2275,1.0758 -3.2275,3.2275 0,2.1517 1.0758,3.2275 3.2275,3.2275 2.0656,0 3.0984,-1.0758 3.0984,-3.2275 0,-2.1517 -1.0328,-3.2275 -3.0984,-3.2275 m -16.912,8.2624 c -2.1516,0 -3.2275,1.0328 -3.2275,3.0984 0,2.2378 1.0758,3.3566 3.2275,3.3566 2.0656,0 3.0984,-1.1189 3.0984,-3.3566 0,-1.4631 -0.73157,-2.4529 -2.1947,-2.9693 -0.25822,-0.0861 -0.55944,-0.12909 -0.90372,-0.12909 m 37.568,8.2624 c -1.205,7.5738 -2.7542,13.039 -4.6476,16.396 l -1.9365,3.0984 v 0.12911 c -0.25832,-0.25822 -1.3772,-1.5492 -3.3566,-3.873 -2.496,-2.9263 -5.121,-8.4776 -7.8751,-16.654 0.17213,1.2049 0.2582,2.4529 0.2582,3.7439 0,4.0451 -0.73157,10.285 -2.1947,18.72 -4.6476,-2.7541 -9.1661,-7.1435 -13.555,-13.168 1.4631,7.4017 2.582,12.264 3.3566,14.588 0.51641,1.7213 1.1619,2.7111 1.9365,2.9693 7.0575,-4.0451 16.396,-6.0677 28.015,-6.0677 11.705,0 21.043,2.0226 28.015,6.0677 1.5491,-0.51639 3.2704,-6.3689 5.164,-17.558 -4.4756,6.1968 -8.951,10.586 -13.426,13.168 -1.4632,-7.4878 -2.1948,-13.383 -2.1947,-17.687 -1.1e-4,-1.1189 0.0859,-2.7111 0.25819,-4.7767 -1.7214,5.164 -3.701,9.7685 -5.9386,13.814 -1.205,1.8074 -2.5391,3.5287 -4.0021,5.164 -0.68863,0.68853 -1.119,1.2049 -1.291,1.5492 l -2.8402,-5.0349 c -0.0861,-0.34426 -0.21526,-0.68853 -0.38728,-1.0328 -0.68864,-1.8935 -1.8075,-6.412 -3.3566,-13.555"
     id="path16"
     inkscape:connector-curvature="0" />
  <path
     d="m -139.47789,178.86489 v 22.851 h 29.435 v -22.851 h -29.435 m -15.234,50.091 -2.4529,-2.4529 v -8.9079 l 13.168,-13.297 v -25.82 l -11.361,-9.9407 v -11.748 l 3.7439,-3.6148 h 11.619 l 2.1947,2.1947 v 3.3566 h 3.7439 v -3.3566 l 2.1947,-2.1947 h 14.201 l 2.1947,2.1947 v 3.3566 h 3.6148 v -3.3566 l 2.3238,-2.1947 h 11.619 l 3.7439,3.6148 v 11.748 l -11.361,9.9407 v 25.82 l 13.168,13.297 v 8.9079 l -2.4529,2.4529 h -59.902 m 2.0656,-10.199 v 5.0349 h 55.771 v -5.0349 h -55.771 m 12.652,-12.781 -8.5206,8.2624 h 47.509 l -8.5206,-8.2624 h -30.468 m 10.328,-47.38 v 3.3566 l -1.9365,1.8074 h -8.3915 l -1.9365,-1.8074 v -3.6148 h -7.2296 l -1.6783,1.8074 v 7.2296 l 8.7788,7.1005 h 34.599 l 8.7788,-7.1005 v -7.2296 l -1.6783,-1.8074 h -7.2296 v 3.6148 l -1.9365,1.8074 h -8.3915 l -1.9365,-1.8074 v -3.3566 h -9.8116"
     id="path18"
     inkscape:connector-curvature="0" />
  <path
     d="m 43.17211,193.96489 c -6.0248,0 -10.715,-0.25821 -14.072,-0.7746 0.60235,1.2049 0.90359,2.2377 0.90369,3.0984 -10e-5,1.291 -0.2583,2.3668 -0.77458,3.2275 2.4958,-0.7746 7.1434,-1.1619 13.943,-1.1619 6.7996,0 11.447,0.38731 13.943,1.1619 -0.5165,-0.86067 -0.77469,-1.9365 -0.77459,-3.2275 -10e-5,-1.0328 0.25809,-2.0656 0.77459,-3.0984 -4.0452,0.51639 -8.6928,0.7746 -13.943,0.7746 m 0,-46.734 c -1.8075,0 -3.0555,0.81761 -3.7439,2.4529 -0.17225,0.43033 -0.2583,0.86068 -0.2582,1.291 -10e-5,1.8935 0.94662,3.1414 2.8402,3.7439 0.34416,0.0861 0.73147,0.12911 1.1619,0.12911 1.9794,0 3.2704,-0.90372 3.873,-2.7111 0.0859,-0.34428 0.12898,-0.73158 0.12911,-1.1619 -1.3e-4,-1.7213 -0.86078,-2.8832 -2.582,-3.4857 -0.5165,-0.17214 -0.98988,-0.25819 -1.4201,-0.25819 m 0,54.867 c -3.2706,0 -7.4879,0.30124 -12.652,0.9037 -1.4631,0.17215 -2.3238,0.98977 -2.582,2.4529 0,1.0328 2.3667,1.6783 7.1005,1.9365 -0.43044,-0.0861 -0.2583,-0.12911 0.51641,-0.12911 h 7.6169 c 10.07,0 15.105,-0.60246 15.105,-1.8074 -1.2e-4,-1.9795 -2.496,-3.0554 -7.4878,-3.2275 h -3.7439 c -1.119,0 -2.0657,-0.043 -2.8402,-0.12911 h -1.0328 m -0.12911,-11.877 c 9.6394,0 15.535,-0.90369 17.687,-2.7111 1.463,-1.1189 2.5388,-4.0882 3.2275,-8.9079 -0.43044,-4.3033 -3.2276,-8.4345 -8.3915,-12.394 -4.8198,-3.7869 -9.0371,-5.8956 -12.652,-6.3259 -3.3567,0.43034 -7.4449,2.539 -12.264,6.3259 -5.0779,3.9591 -7.832,8.0903 -8.2624,12.394 0.60248,4.4755 1.5492,7.3157 2.8402,8.5206 0.34426,0.34427 0.73157,0.6455 1.1619,0.90369 2.1517,1.4632 7.7029,2.1947 16.654,2.1947 m -2.1947,-6.3259 v -5.6804 h -4.3894 v -5.0349 h 4.3894 v -5.5513 h 4.6476 v 5.5513 h 4.3894 v 5.0349 h -4.3894 v 5.6804 h -4.6476 m 2.0656,26.336 c -0.77469,0 -3.0555,1.5062 -6.8423,4.5185 -2.6682,1.8074 -6.9714,2.8832 -12.91,3.2275 -4.3033,0 -7.746,0.21516 -10.328,0.6455 -2.7541,0.60246 -4.1312,1.7644 -4.1312,3.4857 0.2582,1.7213 1.1619,2.582 2.7111,2.582 l 6.8423,-1.0328 c 4.4754,0 9.1661,-0.60246 14.072,-1.8074 5.5942,-1.4631 9.209,-3.7869 10.844,-6.9714 2.3237,4.5616 8.3483,7.3157 18.074,8.2624 l 3.3566,0.51641 h 3.3566 l 6.9714,1.0328 c 1.5491,0 2.4528,-0.86067 2.7111,-2.582 -1e-4,-1.7213 -1.3772,-2.8832 -4.1312,-3.4857 l -13.814,-1.0328 c -4.3895,-0.34427 -8.6068,-2.0656 -12.652,-5.164 -1.8075,-1.4632 -3.1846,-2.1947 -4.1312,-2.1947 m 0.25821,11.232 c -3.3567,3.3566 -8.4346,5.4222 -15.234,6.1968 -2.7541,0.25819 -7.5739,0.86066 -14.459,1.8074 -1.8074,0.34428 -2.8402,1.1619 -3.0984,2.4529 -1.6353,-0.43033 -4.0451,-3.0984 -7.2296,-8.0042 -0.7746,-1.2049 -1.334,-2.0226 -1.6783,-2.4529 2.8402,-5.4222 6.3689,-8.1333 10.586,-8.1333 l 7.6169,0.3873 c 3.5287,0 7.6599,-0.81764 12.394,-2.4529 -6.1107,-0.77459 -9.1661,-2.625 -9.1661,-5.5513 l 2.582,-9.8116 v -0.25822 c -5.164,-5.6804 -7.746,-11.017 -7.746,-16.008 0,-5.6804 2.7972,-10.844 8.3915,-15.492 4.9057,-4.1312 8.5205,-6.3259 10.844,-6.5841 -1.8936,-2.3238 -2.8403,-4.7336 -2.8402,-7.2296 -1.1e-4,-3.9591 1.9794,-6.455 5.9386,-7.4878 0.94662,-0.25809 1.9794,-0.3872 3.0984,-0.38731 4.2172,1.1e-4 6.9713,1.5922 8.2624,4.7767 l 0.6455,2.7111 v 0.38728 c -1e-4,2.6681 -0.90382,5.0779 -2.7111,7.2296 2.3237,0.25821 5.9815,2.4959 10.974,6.7132 5.5081,4.5615 8.2623,9.6825 8.2624,15.363 -1.1e-4,4.8197 -2.5821,10.156 -7.746,16.008 -1e-4,1.205 0.43023,2.9263 1.291,5.164 0.86056,2.7541 1.2909,4.3894 1.291,4.9058 -1e-4,2.9263 -3.0555,4.7767 -9.1661,5.5513 4.6475,1.6353 8.7787,2.4529 12.394,2.4529 l 7.6169,-0.3873 c 4.2172,0 7.7459,2.7111 10.586,8.1333 l -4.3894,6.7132 c -1.4632,1.8935 -2.9694,3.1414 -4.5185,3.7439 -0.34438,-1.7213 -2.8403,-2.7972 -7.4878,-3.2275 0.60235,0 -0.68864,-0.12911 -3.873,-0.3873 -10.758,-1.0328 -17.902,-3.3136 -21.431,-6.8423"
     id="path20"
     inkscape:connector-curvature="0" />
  <path
     d="m 180.76211,198.48489 c 1.2049,0 1.8074,0.81763 1.8074,2.4529 0,2.1517 -1.0758,3.2275 -3.2275,3.2275 -0.86065,0 -1.291,-0.68853 -1.291,-2.0656 0,-2.4099 0.90369,-3.6148 2.7111,-3.6148 m 9.2952,-15.75 c -1.2049,0 -1.8074,-0.73155 -1.8074,-2.1947 0,-2.3238 1.3771,-4.2172 4.1312,-5.6804 1.2049,-0.60246 2.3238,-0.90369 3.3566,-0.90369 1.8074,0 2.7972,0.60246 2.9693,1.8074 0,1.9795 -1.5492,3.873 -4.6476,5.6804 -1.5492,0.86069 -2.8832,1.291 -4.0021,1.291 m 1.0328,-24.271 c 0.34426,1.2049 0.51639,2.0226 0.51639,2.4529 0,0.25821 -0.12909,0.94673 -0.3873,2.0656 1.3771,0 3.2706,-0.68853 5.6804,-2.0656 -2.3238,-1.2049 -4.2603,-2.0226 -5.8095,-2.4529 m -15.363,44.41 c 0.51641,2.0656 1.8935,3.5718 4.1312,4.5185 0.86067,0.34427 1.6783,0.51639 2.4529,0.51639 h 0.25821 c 0.17213,0 1.1189,-0.51639 2.8402,-1.5492 0.51639,-0.34427 0.94673,-0.51639 1.291,-0.51639 h 0.51639 c 0.43033,0 0.64552,0.25819 0.64552,0.77458 l -0.77461,2.4529 c 0,0.7746 0.60246,1.1619 1.8074,1.1619 0.17214,0 1.248,-1.5062 3.2275,-4.5185 3.7869,-5.8525 9.1661,-10.285 16.137,-13.297 0.68852,-4.6476 2.4099,-8.7358 5.164,-12.264 0.68854,-0.94674 1.3771,-1.4201 2.0656,-1.4201 0.77461,0 1.1619,0.55943 1.1619,1.6783 0,0.25822 -0.7746,2.7111 -2.3238,7.3587 -0.60247,1.9795 -0.90371,3.4427 -0.90371,4.3894 0,0.25819 0.0861,0.81763 0.25822,1.6783 0,6.1107 -2.582,12.523 -7.746,19.236 -3.4427,4.6476 -5.3361,8.3485 -5.6804,11.103 h 42.603 c 0.34428,-3.9591 0.51641,-6.8853 0.51641,-8.7788 0,-17.73 -5.5513,-31.888 -16.654,-42.474 -3.3566,-3.0984 -6.0677,-4.6476 -8.1333,-4.6476 h -7.746 c -0.68854,-0.34427 -1.3771,-2.0656 -2.0656,-5.164 -0.51639,-2.4959 -1.1619,-4.0451 -1.9365,-4.6476 -1.0328,3.0984 -4.2173,5.5083 -9.5534,7.2296 -2.8402,0.86066 -4.8197,1.7213 -5.9386,2.582 -0.94673,3.0123 -3.7439,9.1231 -8.3915,18.332 -4.5615,9.123 -6.9714,14.545 -7.2296,16.267 m 72.296,26.078 h -54.093 c 0.34426,-5.9386 2.582,-11.619 6.7132,-17.041 3.1845,-4.3033 5.0779,-6.9284 5.6804,-7.8751 1.2049,-1.8935 1.9365,-4.1742 2.1947,-6.8423 -5.5943,2.4098 -9.9407,5.8525 -13.039,10.328 l -1.8074,2.9693 c -1.291,2.0656 -2.1086,3.2275 -2.4529,3.4857 -0.51639,0.43033 -1.0758,0.6455 -1.6783,0.6455 -2.668,0 -4.4755,-0.9037 -5.4222,-2.7111 -0.17215,-0.2582 -0.25821,-0.55943 -0.25821,-0.9037 -0.86067,0.43033 -1.7213,0.6455 -2.582,0.6455 -4.1312,0 -7.4017,-2.582 -9.8116,-7.746 0.68853,-3.7869 4.3033,-12.523 10.844,-26.207 0.68854,-1.291 1.205,-2.3238 1.5492,-3.0984 2.582,-5.7665 3.873,-10.113 3.873,-13.039 0,-0.43032 -0.25819,-2.8402 -0.77461,-7.2296 h 1.0328 c 4.6476,0 9.08,1.4631 13.297,4.3894 2.3238,-4.0451 4.2603,-6.0677 5.8095,-6.0677 2.7541,1.4631 4.6476,3.5287 5.6804,6.1968 l 1.4201,4.2603 c 0.86065,-0.17214 1.5922,-0.2582 2.1947,-0.2582 6.8853,0 13.685,4.3894 20.398,13.168 7.8321,10.242 11.748,24.271 11.748,42.087 0,4.0451 -0.17212,7.6599 -0.51639,10.844"
     id="path22"
     inkscape:connector-curvature="0" />
  <path
     d="m 402.27211,223.79489 c -10e-5,-9.037 -2.453,-15.793 -7.3587,-20.269 -1.6354,-1.5492 -3.6579,-3.0123 -6.0677,-4.3894 -3.3567,-1.9795 -5.035,-3.7869 -5.0349,-5.4222 -1e-4,-0.86067 0.86055,-1.8074 2.582,-2.8402 2.668,-1.4631 4.2602,-3.1845 4.7767,-5.164 0.17202,-0.77458 0.25809,-1.7213 0.25819,-2.8402 -1e-4,-3.9591 -2.0227,-7.0575 -6.0677,-9.2952 l -2.3238,-1.6783 c -0.43045,-0.43032 -0.64561,-0.9037 -0.6455,-1.4201 -1.1e-4,-1.4631 0.51628,-2.9263 1.5492,-4.3894 0.68843,-0.94672 1.0327,-2.0656 1.0328,-3.3566 -10e-5,-2.2377 -1.205,-3.873 -3.6148,-4.9058 -0.77471,-0.25821 -1.5493,-0.3873 -2.3238,-0.3873 -2.41,0 -4.1313,1.0758 -5.164,3.2275 -0.34436,0.68854 -0.51651,1.3771 -0.51641,2.0656 -10e-5,0.77461 0.55935,2.2377 1.6783,4.3894 0.68843,1.2049 0.98966,2.3238 0.90372,3.3566 -1.4e-4,1.0328 -0.9899,2.0656 -2.9693,3.0984 -3.9592,2.3238 -5.9387,5.4222 -5.9386,9.2952 -1.3e-4,3.3566 1.6782,6.0247 5.0349,8.0042 1.6352,1.1188 2.4528,2.0656 2.4529,2.8402 -1.1e-4,1.6353 -1.6784,3.4427 -5.0349,5.4222 -6.1968,3.7869 -10.156,8.3915 -11.877,13.814 -0.94673,3.0123 -1.4201,6.6271 -1.4201,10.844 h 46.089 m -50.607,5.164 c -0.0861,-1.0328 -0.12911,-3.0123 -0.12911,-5.9386 0,-10.586 3.0984,-18.504 9.2952,-23.754 2.0656,-1.7213 4.6905,-3.3996 7.8751,-5.0349 -3.2705,-1.0328 -5.4652,-3.5288 -6.5841,-7.4878 -0.43032,-1.291 -0.6455,-2.625 -0.6455,-4.0021 0,-5.7664 2.9263,-9.8977 8.7788,-12.394 -1.3772,-2.496 -2.0657,-4.9488 -2.0656,-7.3587 -1.1e-4,-3.9591 1.9364,-6.8853 5.8095,-8.7788 1.6352,-0.77461 3.3995,-1.1619 5.2931,-1.1619 4.3893,0 7.6168,1.6783 9.6825,5.0349 0.94663,1.4631 1.42,3.0984 1.4201,4.9058 -10e-5,2.3238 -0.77471,4.7767 -2.3238,7.3587 5.9385,2.4099 8.9078,6.541 8.9079,12.394 -1.1e-4,4.5616 -1.6784,8.0042 -5.0349,10.328 -0.68863,0.51641 -1.4632,0.90371 -2.3238,1.1619 7.7459,3.9591 12.781,8.994 15.105,15.105 1.463,3.7869 2.1946,8.3485 2.1947,13.685 -1e-4,2.8402 -0.0431,4.8197 -0.12911,5.9386 h -55.126"
     id="path24"
     inkscape:connector-curvature="0" />
  <path
     style="opacity:1;fill:#ffffff;fill-opacity:1;stroke:#000000;stroke-width:0;stroke-linecap:round;stroke-linejoin:round;stroke-miterlimit:4;stroke-dasharray:none;stroke-dashoffset:0;stroke-opacity:1"
     d="m 43.457961,39.283788 v -2.948652 h -2.278503 -2.278504 v -2.267662 -2.267663 l 2.211489,-0.07786 2.211488,-0.07785 0.07639,-2.747608 0.07639,-2.747607 h 2.135096 2.135097 v 2.814622 2.814622 h 2.278503 2.278504 v 2.278504 2.278503 h -2.278504 -2.278503 v 2.948652 2.948651 H 45.60243 43.457956 Z"
     id="path6972"
     inkscape:connector-curvature="0" />
  <path
     style="opacity:1;fill:#ffffff;fill-opacity:1;stroke:#000000;stroke-width:0;stroke-linecap:round;stroke-linejoin:round;stroke-miterlimit:4;stroke-dasharray:none;stroke-dashoffset:0;stroke-opacity:1"
     d="m 44.12265,11.708465 c -3.339991,-1.517261 -1.47151,-6.2270654 2.197355,-5.5387822 1.508182,0.2829367 2.231081,1.1995203 2.231081,2.8288497 0,1.7135065 -0.334365,2.3501535 -1.487292,2.8318775 -1.175499,0.491154 -1.633294,0.472173 -2.941144,-0.121945 z"
     id="path6974"
     inkscape:connector-curvature="0" />
  <path
     style="opacity:1;fill:#ffffff;fill-opacity:1;stroke:#000000;stroke-width:0;stroke-linecap:round;stroke-linejoin:round;stroke-miterlimit:4;stroke-dasharray:none;stroke-dashoffset:0;stroke-opacity:1"
     d="m 39.034984,52.700815 c -4.396792,-0.234437 -5.274517,-0.398131 -5.912039,-1.102585 -0.381172,-0.421191 -0.415887,-0.646081 -0.179738,-1.164373 0.576124,-1.264455 1.516387,-1.365907 12.659228,-1.365907 9.0565,0 10.440734,0.05466 11.303926,0.44641 2.301836,1.044648 1.736696,2.508667 -1.117675,2.895385 -2.576581,0.349083 -12.448943,0.5206 -16.753702,0.29107 z"
     id="path6976"
     inkscape:connector-curvature="0" />
  <path
     style="opacity:1;fill:#ffffff;fill-opacity:1;stroke:#000000;stroke-width:0;stroke-linecap:round;stroke-linejoin:round;stroke-miterlimit:4;stroke-dasharray:none;stroke-dashoffset:0;stroke-opacity:1"
     d="m 36.115365,60.713786 c -1.728383,-0.289643 -2.805302,-0.753019 -3.120997,-1.342901 -0.391539,-0.731598 -0.06045,-1.232767 1.169221,-1.769843 0.999132,-0.436385 2.129166,-0.497531 10.583437,-0.572675 10.231964,-0.09094 11.875517,0.0562 13.128539,1.175376 l 0.727743,0.650006 -0.628509,0.531801 c -0.846543,0.716286 -2.040577,1.003739 -5.536854,1.332945 -3.414626,0.321518 -14.394791,0.318351 -16.32258,-0.0047 z"
     id="path6978"
     inkscape:connector-curvature="0" />
</svg>
